<?xml version="1.0" encoding="UTF-8" standalone="no"?><!DOCTYPE svg PUBLIC "-//W3C//DTD SVG 1.1//EN" "http://www.w3.org/Graphics/SVG/1.1/DTD/svg11.dtd"><svg width="100%" height="100%" viewBox="0 0 399 43" version="1.1" xmlns="http://www.w3.org/2000/svg" xmlns:xlink="http://www.w3.org/1999/xlink" xml:space="preserve" xmlns:serif="http://www.serif.com/" style="fill-rule:evenodd;clip-rule:evenodd;stroke-linejoin:round;stroke-miterlimit:2;"><g><path d="M26.761,0.299c1.866,-0.549 4.023,-0.26 5.589,0.929c0.924,0.687 1.688,1.624 2.039,2.732c0.538,1.527 0.256,3.378 -0.867,4.575c-0.678,0.674 -1.531,1.129 -2.374,1.557c0.84,-1.107 1.491,-2.575 1.09,-3.977c-0.208,-0.741 -0.912,-1.283 -1.674,-1.339c0.272,1.668 -0.722,3.434 -2.302,4.037c-1.329,0.555 -2.966,0.248 -3.996,-0.763c-1.249,-1.188 -1.547,-3.169 -0.9,-4.737c0.541,-1.499 1.95,-2.487 3.395,-3.014Z" style="fill:#999;fill-rule:nonzero;"/><path d="M35.286,6.441c3.484,0.198 6.287,3.637 6.001,7.071c-0.154,1.416 -0.869,2.827 -2.109,3.587c-1.748,1.134 -4.36,0.777 -5.663,-0.877c-0.947,-1.191 -0.98,-3.001 -0.08,-4.229c0.885,-1.272 2.61,-1.8 4.078,-1.375c0.332,-0.662 0.284,-1.456 -0.064,-2.103c-0.408,-0.956 -1.263,-1.612 -2.163,-2.074Z" style="fill:#999;fill-rule:nonzero;"/><path d="M23.29,10.521c0.809,-0.343 1.647,-0.611 2.489,-0.861c-0.639,0.571 -1.241,1.191 -1.706,1.915c-0.831,1.267 -1.23,2.755 -1.523,4.225c-0.234,1.199 -0.168,2.434 0.002,3.637c0.09,0.484 0.188,1.018 0.544,1.382c1.18,-0.859 2.621,-1.244 4.043,-1.479c2.533,-0.408 5.2,0.034 7.449,1.274c2.343,1.27 4.219,3.374 5.214,5.848c1.014,2.493 1.123,5.34 0.314,7.907c-0.746,2.399 -2.304,4.524 -4.33,6.003c-1.855,1.363 -4.097,2.184 -6.389,2.38c-3.5,0.385 -7.206,-0.07 -10.279,-1.884c-1.599,-0.889 -3.035,-2.084 -4.141,-3.548c-0.87,-1.151 -1.724,-2.341 -2.242,-3.699c-0.414,-1.037 -0.656,-2.137 -0.765,-3.247c-0.236,-2.207 -0.079,-4.447 0.378,-6.616c0.373,-1.713 0.926,-3.398 1.77,-4.939c1.978,-3.716 5.277,-6.705 9.172,-8.298Z" style="fill:#999;fill-rule:nonzero;"/><path d="M0.222,27.263c0.681,-3.025 3.962,-5.091 6.986,-4.547c1.637,0.274 3.111,1.363 3.853,2.85c0.756,1.47 0.779,3.288 0.077,4.783c-0.712,1.543 -2.171,2.7 -3.817,3.097c0.933,1.242 2.279,2.189 3.792,2.562c0.863,0.24 1.758,0.348 2.653,0.347c-0.11,0.171 -0.314,0.222 -0.491,0.293c-0.776,0.268 -1.598,0.365 -2.409,0.456c-2.019,0.156 -4.128,-0.023 -5.954,-0.956c-3.325,-1.434 -5.486,-5.304 -4.69,-8.885Z" style="fill:#999;fill-rule:nonzero;"/><path d="M64.409,30.714c-1.718,0 -3.266,-0.377 -4.643,-1.13c-1.378,-0.754 -2.46,-1.795 -3.246,-3.124c-0.786,-1.329 -1.179,-2.812 -1.179,-4.449c0,-1.637 0.393,-3.12 1.179,-4.449c0.786,-1.33 1.868,-2.371 3.246,-3.125c1.377,-0.753 2.925,-1.13 4.643,-1.13c1.701,0 3.241,0.377 4.618,1.13c1.378,0.754 2.456,1.791 3.234,3.112c0.777,1.321 1.166,2.808 1.166,4.462c0,1.653 -0.389,3.14 -1.166,4.461c-0.778,1.321 -1.856,2.358 -3.234,3.112c-1.377,0.753 -2.917,1.13 -4.618,1.13Zm-0,-2.164c1.248,0 2.37,-0.283 3.367,-0.851c0.996,-0.567 1.782,-1.349 2.357,-2.346c0.576,-0.996 0.863,-2.111 0.863,-3.342c0,-1.232 -0.287,-2.347 -0.863,-3.343c-0.575,-0.997 -1.361,-1.779 -2.357,-2.346c-0.997,-0.568 -2.119,-0.851 -3.367,-0.851c-1.248,-0 -2.379,0.283 -3.391,0.851c-1.013,0.567 -1.807,1.349 -2.383,2.346c-0.575,0.996 -0.863,2.111 -0.863,3.343c0,1.231 0.288,2.346 0.863,3.342c0.576,0.997 1.37,1.779 2.383,2.346c1.012,0.568 2.143,0.851 3.391,0.851Z" style="fill-opacity:0.4;fill-rule:nonzero;"/><path d="M77.147,13.502l2.431,-0l-0,14.902l9.213,0l-0,2.116l-11.644,-0l-0,-17.018Z" style="fill-opacity:0.4;fill-rule:nonzero;"/><path d="M103.06,21.913l2.334,0l-0,6.637c-0.843,0.697 -1.823,1.232 -2.942,1.605c-1.118,0.373 -2.285,0.559 -3.5,0.559c-1.718,0 -3.266,-0.377 -4.643,-1.13c-1.378,-0.754 -2.459,-1.791 -3.245,-3.112c-0.786,-1.321 -1.179,-2.808 -1.179,-4.461c-0,-1.654 0.393,-3.145 1.179,-4.474c0.786,-1.329 1.871,-2.366 3.257,-3.112c1.386,-0.745 2.946,-1.118 4.68,-1.118c1.361,0 2.597,0.223 3.707,0.669c1.11,0.445 2.054,1.098 2.832,1.957l-1.507,1.507c-1.362,-1.313 -3.007,-1.969 -4.935,-1.969c-1.297,-0 -2.459,0.279 -3.489,0.838c-1.029,0.56 -1.835,1.338 -2.418,2.334c-0.584,0.997 -0.875,2.12 -0.875,3.368c-0,1.231 0.291,2.346 0.875,3.342c0.583,0.997 1.389,1.779 2.418,2.346c1.03,0.568 2.184,0.851 3.464,0.851c1.524,0 2.853,-0.364 3.987,-1.094l0,-5.543Z" style="fill-opacity:0.4;fill-rule:nonzero;"/><path d="M120.879,26.265l-9.043,0l-1.872,4.255l-2.504,-0l7.706,-17.018l2.407,-0l7.73,17.018l-2.552,-0l-1.872,-4.255Zm-0.851,-1.945l-3.671,-8.339l-3.67,8.339l7.341,0Z" style="fill-opacity:0.4;fill-rule:nonzero;"/><path d="M147.084,28.404l-0,2.116l-14.221,-0l0,-1.654l10.696,-13.249l-10.526,-0l0,-2.115l13.735,-0l-0,1.653l-10.647,13.249l10.963,0Z" style="fill-opacity:0.4;fill-rule:nonzero;"/><path d="M161.183,26.265l-9.043,0l-1.872,4.255l-2.503,-0l7.706,-17.018l2.406,-0l7.73,17.018l-2.552,-0l-1.872,-4.255Zm-0.851,-1.945l-3.67,-8.339l-3.671,8.339l7.341,0Z" style="fill-opacity:0.4;fill-rule:nonzero;"/><path d="M182.016,13.502l-7.463,17.018l-2.406,-0l-7.488,-17.018l2.626,-0l6.126,13.979l6.174,-13.979l2.431,-0Z" style="fill-opacity:0.4;fill-rule:nonzero;"/><path d="M196.529,28.404l-0,2.116l-12.349,-0l-0,-17.018l12.008,-0l0,2.115l-9.577,-0l-0,5.227l8.532,-0l0,2.066l-8.532,0l-0,5.494l9.918,0Z" style="fill-opacity:0.4;fill-rule:nonzero;"/><path d="M211.843,30.52l-3.67,-5.227c-0.454,0.032 -0.811,0.048 -1.07,0.048l-4.205,0l-0,5.179l-2.431,-0l-0,-17.018l6.636,-0c2.204,-0 3.938,0.526 5.202,1.58c1.264,1.053 1.896,2.504 1.896,4.352c0,1.312 -0.324,2.431 -0.972,3.355c-0.648,0.923 -1.572,1.596 -2.771,2.017l4.035,5.714l-2.65,-0Zm-4.813,-7.245c1.54,-0 2.715,-0.333 3.525,-0.997c0.81,-0.665 1.215,-1.613 1.215,-2.844c0,-1.232 -0.405,-2.176 -1.215,-2.833c-0.81,-0.656 -1.985,-0.984 -3.525,-0.984l-4.132,-0l-0,7.658l4.132,-0Z" style="fill-opacity:0.4;fill-rule:nonzero;"/><path d="M223.099,30.714c-1.281,0 -2.516,-0.198 -3.708,-0.596c-1.191,-0.397 -2.127,-0.911 -2.807,-1.543l0.899,-1.897c0.648,0.584 1.479,1.058 2.492,1.423c1.013,0.364 2.054,0.547 3.124,0.547c1.409,-0 2.463,-0.239 3.16,-0.718c0.697,-0.478 1.045,-1.114 1.045,-1.908c-0,-0.584 -0.19,-1.058 -0.571,-1.422c-0.381,-0.365 -0.851,-0.645 -1.41,-0.839c-0.559,-0.195 -1.349,-0.413 -2.37,-0.656c-1.281,-0.308 -2.314,-0.616 -3.1,-0.924c-0.786,-0.308 -1.458,-0.782 -2.017,-1.423c-0.56,-0.64 -0.839,-1.503 -0.839,-2.589c-0,-0.907 0.239,-1.726 0.717,-2.455c0.478,-0.729 1.203,-1.313 2.176,-1.751c0.972,-0.437 2.179,-0.656 3.622,-0.656c1.005,0 1.993,0.13 2.965,0.389c0.973,0.259 1.807,0.632 2.504,1.118l-0.802,1.945c-0.713,-0.454 -1.475,-0.798 -2.285,-1.033c-0.81,-0.235 -1.604,-0.353 -2.382,-0.353c-1.378,0 -2.411,0.252 -3.1,0.754c-0.688,0.503 -1.033,1.151 -1.033,1.945c0,0.584 0.195,1.058 0.584,1.422c0.389,0.365 0.871,0.649 1.446,0.851c0.575,0.203 1.357,0.418 2.346,0.644c1.28,0.308 2.309,0.616 3.087,0.924c0.778,0.308 1.447,0.778 2.006,1.41c0.559,0.632 0.838,1.483 0.838,2.553c0,0.891 -0.243,1.706 -0.729,2.443c-0.486,0.738 -1.224,1.321 -2.212,1.751c-0.989,0.429 -2.204,0.644 -3.646,0.644Z" style="fill-opacity:0.4;fill-rule:nonzero;"/><path d="M247.869,13.502l0,17.018l-2.43,-0l-0,-7.586l-9.773,0l0,7.586l-2.431,-0l0,-17.018l2.431,-0l0,7.317l9.773,0l-0,-7.317l2.43,-0Z" style="fill-opacity:0.4;fill-rule:nonzero;"/><rect x="252.974" y="13.502" width="2.431" height="17.018" style="fill-opacity:0.4;fill-rule:nonzero;"/><path d="M275.144,13.502l0,17.018l-1.993,-0l-10.21,-12.691l0,12.691l-2.431,-0l0,-17.018l1.994,-0l10.209,12.69l0,-12.69l2.431,-0Z" style="fill-opacity:0.4;fill-rule:nonzero;"/><path d="M285.208,30.714c-1.28,0 -2.516,-0.198 -3.707,-0.596c-1.191,-0.397 -2.127,-0.911 -2.808,-1.543l0.9,-1.897c0.648,0.584 1.479,1.058 2.492,1.423c1.012,0.364 2.054,0.547 3.123,0.547c1.41,-0 2.464,-0.239 3.16,-0.718c0.697,-0.478 1.046,-1.114 1.046,-1.908c-0,-0.584 -0.191,-1.058 -0.572,-1.422c-0.38,-0.365 -0.85,-0.645 -1.409,-0.839c-0.56,-0.195 -1.35,-0.413 -2.371,-0.656c-1.28,-0.308 -2.313,-0.616 -3.099,-0.924c-0.786,-0.308 -1.459,-0.782 -2.018,-1.423c-0.559,-0.64 -0.838,-1.503 -0.838,-2.589c-0,-0.907 0.239,-1.726 0.717,-2.455c0.478,-0.729 1.203,-1.313 2.175,-1.751c0.973,-0.437 2.18,-0.656 3.623,-0.656c1.004,0 1.993,0.13 2.965,0.389c0.973,0.259 1.807,0.632 2.504,1.118l-0.802,1.945c-0.713,-0.454 -1.475,-0.798 -2.285,-1.033c-0.81,-0.235 -1.605,-0.353 -2.382,-0.353c-1.378,0 -2.411,0.252 -3.1,0.754c-0.689,0.503 -1.033,1.151 -1.033,1.945c-0,0.584 0.194,1.058 0.583,1.422c0.389,0.365 0.871,0.649 1.447,0.851c0.575,0.203 1.357,0.418 2.346,0.644c1.28,0.308 2.309,0.616 3.087,0.924c0.778,0.308 1.446,0.778 2.005,1.41c0.559,0.632 0.839,1.483 0.839,2.553c0,0.891 -0.243,1.706 -0.729,2.443c-0.486,0.738 -1.224,1.321 -2.212,1.751c-0.989,0.429 -2.204,0.644 -3.647,0.644Z" style="fill-opacity:0.4;fill-rule:nonzero;"/><path d="M300.888,22.959l-3.112,3.16l0,4.401l-2.431,-0l0,-17.018l2.431,-0l0,9.505l9.238,-9.505l2.771,-0l-7.269,7.658l7.731,9.36l-2.845,-0l-6.514,-7.561Z" style="fill-opacity:0.4;fill-rule:nonzero;"/><path d="M322.985,26.265l-9.043,0l-1.872,4.255l-2.504,-0l7.706,-17.018l2.407,-0l7.73,17.018l-2.553,-0l-1.871,-4.255Zm-0.851,-1.945l-3.671,-8.339l-3.671,8.339l7.342,0Z" style="fill-opacity:0.4;fill-rule:nonzero;"/><path d="M335.431,24.636l-0,5.884l-2.407,-0l0,-5.932l-6.758,-11.086l2.601,-0l5.446,8.97l5.469,-8.97l2.407,-0l-6.758,11.134Z" style="fill-opacity:0.4;fill-rule:nonzero;"/><path d="M354.465,26.265l-9.043,0l-1.872,4.255l-2.504,-0l7.706,-17.018l2.407,-0l7.73,17.018l-2.552,-0l-1.872,-4.255Zm-0.851,-1.945l-3.671,-8.339l-3.67,8.339l7.341,0Z" style="fill-opacity:0.4;fill-rule:nonzero;"/></g></svg>